<?xml version="1.0" encoding="iso-8859-1"?>
<!-- Generator: Adobe Illustrator 16.0.0, SVG Export Plug-In . SVG Version: 6.00 Build 0)  -->
<!DOCTYPE svg PUBLIC "-//W3C//DTD SVG 1.1//EN" "http://www.w3.org/Graphics/SVG/1.1/DTD/svg11.dtd">
<svg xmlns="http://www.w3.org/2000/svg" xmlns:xlink="http://www.w3.org/1999/xlink" version="1.1" id="Capa_1" x="0px" y="0px" width="512px" height="512px" viewBox="0 0 471.175 471.175" style="enable-background:new 0 0 471.175 471.175;" xml:space="preserve">
<g>
	<g>
		<path d="M402.796,121.73c-7.941-9.845-22.359-11.389-32.203-3.447c-9.846,7.941-11.389,22.359-3.447,32.203    c24.443,30.302,37.363,66.944,37.363,105.966c0,93.144-75.777,168.921-168.921,168.921c-93.143,0-168.92-75.778-168.92-168.921    c0-87.063,66.208-158.944,150.918-167.96l-6.84,33.939c-0.983,4.881,0.946,9.89,4.949,12.851    c4.002,2.959,9.357,3.338,13.736,0.967l78.557-42.512c3.348-1.813,5.719-5.018,6.471-8.75s-0.193-7.604-2.578-10.572    L255.921,4.793c-3.119-3.881-8.201-5.607-13.037-4.427c-4.838,1.179-8.556,5.05-9.54,9.93l-6.373,31.622    C112.553,46.457,20.865,140.94,20.865,256.452c0,118.398,96.324,214.723,214.722,214.723    c118.399,0,214.723-96.323,214.723-214.723C450.31,207.561,433.435,159.715,402.796,121.73z" fill="#33cc66"/>
		<path d="M140.335,290.159l-16.54,14.967c-1.934,1.749-3.036,4.233-3.036,6.838v11.484c0,5.094,4.129,9.223,9.222,9.223h89.731    c5.093,0,9.222-4.129,9.222-9.223V308.08c0-5.093-4.128-9.222-9.222-9.222h-40.114l7.205-6.004    c0.083-0.069,0.164-0.141,0.244-0.21c23.548-21.055,39.232-40.028,39.232-64.19c0-29.294-21.013-48.221-53.535-48.221    c-16.177,0-32.01,4.401-44.582,12.392c-3.731,2.372-5.254,7.055-3.632,11.167l4.892,12.396c1.002,2.541,3.078,4.506,5.668,5.368    c2.591,0.861,5.432,0.53,7.754-0.905c7.815-4.825,15.567-7.27,23.04-7.27c17.886,0,20.593,11.192,20.606,17.901    C186.069,246.626,171.278,262.486,140.335,290.159z" fill="#33cc66"/>
		<path d="M284.5,187.024l-51.715,83.247c-0.908,1.462-1.39,3.146-1.39,4.867v14.009c0,5.092,4.13,9.221,9.222,9.221h54.518v25.082    c0,5.094,4.129,9.223,9.221,9.223h19.576c5.092,0,9.221-4.129,9.221-9.223v-25.082h8.043c5.092,0,9.221-4.129,9.221-9.221v-12.936    c0-5.093-4.129-9.222-9.221-9.222h-8.043v-75.101c0-5.092-4.129-9.223-9.221-9.223h-31.598    C289.144,182.666,286.183,184.315,284.5,187.024z M295.136,266.988h-24.021l24.037-42.459L295.136,266.988z" fill="#33cc66"/>
	</g>
</g>
</svg>
