<?xml version="1.0" encoding="utf-8"?>
<!-- Generator: Adobe Illustrator 22.0.1, SVG Export Plug-In . SVG Version: 6.00 Build 0)  -->
<svg version="1.1" id="Capa_1" xmlns="http://www.w3.org/2000/svg" xmlns:xlink="http://www.w3.org/1999/xlink" x="0px" y="0px"
	 viewBox="0 0 512 512" style="enable-background:new 0 0 512 512;" xml:space="preserve">
<style type="text/css">
	.st0{fill:#33cc99;}
</style>
<g>
	<path class="st0" d="M216,368c6.3,0,11.9-2.4,16.2-6.4l0,0.1l96-88c4.9-4.6,7.8-11,7.8-17.7c0-6.7-2.8-13.1-7.8-17.7l-96-88l0,0.1
		c-4.3-3.9-9.9-6.4-16.2-6.4c-13.2,0-24,10.8-24,24c0,7,3,13.2,7.8,17.6l0,0.1l76.7,70.3l-76.7,70.3l0,0.1
		C195,330.8,192,337,192,344C192,357.2,202.8,368,216,368z M256,512c141.4,0,256-114.6,256-256S397.4,0,256,0S0,114.6,0,256
		S114.6,512,256,512z M256,48c114.7,0,208,93.3,208,208s-93.3,208-208,208S48,370.7,48,256S141.3,48,256,48z"/>
</g>
</svg>
