<?xml version="1.0" encoding="utf-8"?>
<!-- Generator: Adobe Illustrator 22.0.1, SVG Export Plug-In . SVG Version: 6.00 Build 0)  -->
<svg version="1.1" id="Capa_1" xmlns="http://www.w3.org/2000/svg" xmlns:xlink="http://www.w3.org/1999/xlink" x="0px" y="0px"
	 viewBox="0 0 512 512" style="enable-background:new 0 0 512 512;" xml:space="preserve">
<g>
	<g>
		<path d="M189.4,219.3c1.8,30.2,26.9,54.2,57.6,54.2h6.5L189.4,219.3z"/>
	</g>
</g>
<g>
	<g>
		<rect x="189.3" y="140" width="133.5" height="31.9"/>
	</g>
</g>
<g>
	<g>
		<path d="M215.2,201.9l76.8,64.9c18.3-9.7,30.8-28.9,30.8-51v-13.9H215.2z"/>
	</g>
</g>
<g>
	<g>
		<path d="M0,256c0,68.4,26.6,132.7,75,181c48.4,48.4,112.6,75,181,75s132.7-26.6,181-75c1.5-1.5,3-3,4.4-4.5L285.9,301
			c-4.8,1.2-9.8,2-14.9,2.3V402h45.5v30h-121v-30H241v-98.7c-45.6-3.1-81.7-41.1-81.7-87.5v-22L51.2,102.4C18,146.5,0,199.8,0,256z"
			/>
	</g>
</g>
<g>
	<g>
		<path d="M159.3,154.5V110h193.5v105.8c0,29.4-14.5,55.4-36.7,71.3l144.8,122.5C494,365.5,512,312.2,512,256
			c0-68.4-26.6-132.7-75-181C388.7,26.6,324.4,0,256,0C187.6,0,123.3,26.6,75,75c-1.5,1.5-3,3-4.4,4.5L159.3,154.5z"/>
	</g>
</g>
</svg>
