<?xml version="1.0" encoding="UTF-8"?><!DOCTYPE svg PUBLIC "-//W3C//DTD SVG 1.1//EN" "http://www.w3.org/Graphics/SVG/1.1/DTD/svg11.dtd"><svg xmlns="http://www.w3.org/2000/svg"><symbol id="icon-burger" viewBox="0 0 32 32">
    <path d="M4 10h24a2 2 0 0 0 0-4H4a2 2 0 0 0 0 4zm24 4H4a2 2 0 0 0 0 4h24a2 2 0 0 0 0-4zm0 8H4a2 2 0 0 0 0 4h24a2 2 0 0 0 0-4z"/>
</symbol><symbol id="icon-facebook" viewBox="0 0 10 19">
    <title>
        facebook
    </title>
    <path d="M9.766.157v2.946H8.014c-.64 0-1.071.134-1.295.402-.223.268-.335.67-.335 1.205v2.11h3.27l-.435 3.303H6.384v8.471H2.97v-8.47H.123V6.82H2.97V4.387c0-1.384.387-2.457 1.161-3.22C4.904.404 5.934.023 7.222.023c1.093 0 1.941.045 2.544.134z" fill-rule="evenodd"/>
</symbol><symbol id="icon-search" viewBox="0 0 32 32">
    <title/>
    <path d="M19.427 21.427a8.5 8.5 0 1 1 2-2l5.585 5.585c.55.55.546 1.43 0 1.976l-.024.024a1.399 1.399 0 0 1-1.976 0l-5.585-5.585zM14.5 21a6.5 6.5 0 1 0 0-13 6.5 6.5 0 0 0 0 13z" fill-rule="evenodd"/>
</symbol></svg>